<svg width="1032" height="102" viewBox="0 0 1032 102" fill="none" xmlns="http://www.w3.org/2000/svg">
<path d="M102 100L5 100C3.34314 100 2 98.6569 2 97L1.99999 1.20205e-05" stroke="#12B76A" stroke-width="3"/>
<path d="M288 100L194 100C190.686 100 188 97.3137 188 94L188 1.20205e-05" stroke="#12B76A" stroke-width="3"/>
<path d="M474 100L382 100C377.582 100 374 96.4183 374 92L374 1.20205e-05" stroke="#12B76A" stroke-width="3"/>
<path d="M660 100L572 100C565.373 100 560 94.6274 560 88L560 1.20205e-05" stroke="#12B76A" stroke-width="3"/>
<path d="M846 100L762 100C753.163 100 746 92.8366 746 84L746 1.20205e-05" stroke="#12B76A" stroke-width="3"/>
<path d="M1032 100V100C976.772 100 932 55.2285 932 1.20205e-05V1.20205e-05" stroke="#12B76A" stroke-width="3"/>
</svg>
