<svg width="1312" height="244" viewBox="0 0 1312 244" fill="none" xmlns="http://www.w3.org/2000/svg">
<rect width="640" height="20" transform="translate(16 52)" fill="#6CE9A6" fill-opacity="0.2"/>
<path d="M23.8011 67.1193C25.5653 67.1406 26.7159 65.8111 26.7159 64.1875C26.7159 62.5 25.4673 61.2898 23.9716 61.2898C23.0724 61.2898 22.3011 61.7287 21.8239 62.4489H21.7557C21.7599 60.3224 22.5866 59.0909 23.9375 59.0909C24.858 59.0909 25.4119 59.6705 25.608 60.4545H26.6477C26.4347 59.0994 25.4034 58.1534 23.9375 58.1534C21.973 58.1534 20.767 59.892 20.767 62.9773C20.767 66.2031 22.3693 67.1023 23.8011 67.1193ZM23.8011 66.1818C22.706 66.1818 21.9048 65.2486 21.9091 64.2045C21.9134 63.1605 22.7528 62.2273 23.8352 62.2273C24.9048 62.2273 25.6932 63.1051 25.6932 64.1875C25.6932 65.2955 24.8707 66.1818 23.8011 66.1818ZM28.1871 65.2102H32.2951V67H33.3008V65.2102H34.494V64.2727H33.3008V58.2727H32.0224L28.1871 64.3409V65.2102ZM32.2951 64.2727H29.3292V64.2045L32.2269 59.6193H32.2951V64.2727ZM38.9375 67.1193C40.8636 67.1193 41.9716 65.4872 41.9716 62.6364C41.9716 59.8068 40.8466 58.1534 38.9375 58.1534C37.0284 58.1534 35.9034 59.8068 35.9034 62.6364C35.9034 65.4872 37.0114 67.1193 38.9375 67.1193ZM38.9375 66.1818C37.6676 66.1818 36.9261 64.9077 36.9261 62.6364C36.9261 60.3693 37.6761 59.0739 38.9375 59.0739C40.1989 59.0739 40.9489 60.3693 40.9489 62.6364C40.9489 64.9077 40.2074 66.1818 38.9375 66.1818ZM43.608 69.4545H44.6136V65.9943H44.6989C44.9205 66.3523 45.3466 67.1364 46.608 67.1364C48.2443 67.1364 49.3864 65.8239 49.3864 63.7443C49.3864 61.6818 48.2443 60.3693 46.5909 60.3693C45.3125 60.3693 44.9205 61.1534 44.6989 61.4943H44.5795V60.4545H43.608V69.4545ZM44.5966 63.7273C44.5966 62.2614 45.2443 61.2727 46.4716 61.2727C47.75 61.2727 48.3807 62.3466 48.3807 63.7273C48.3807 65.125 47.733 66.233 46.4716 66.233C45.2614 66.233 44.5966 65.2102 44.5966 63.7273ZM51.4009 60.4545H50.2418L52.3214 63.7273L50.2418 67H51.4009L52.9691 64.4602L54.5373 67H55.6964L53.5827 63.7273L55.6964 60.4545H54.5373L52.9691 63.1307L51.4009 60.4545Z" fill="#039855"/>
<rect width="768" height="20" transform="translate(16 104)" fill="#6CE9A6" fill-opacity="0.2"/>
<path d="M21.1761 119H22.2841L26.1705 111.261V110.273H20.5795V111.21H25.0795V111.278L21.1761 119ZM30.4691 119.119C32.2333 119.141 33.3839 117.811 33.3839 116.188C33.3839 114.5 32.1353 113.29 30.6396 113.29C29.7404 113.29 28.9691 113.729 28.4918 114.449H28.4237C28.4279 112.322 29.2546 111.091 30.6055 111.091C31.5259 111.091 32.0799 111.67 32.2759 112.455H33.3157C33.1026 111.099 32.0714 110.153 30.6055 110.153C28.641 110.153 27.435 111.892 27.435 114.977C27.435 118.203 29.0373 119.102 30.4691 119.119ZM30.4691 118.182C29.3739 118.182 28.5728 117.249 28.5771 116.205C28.5813 115.161 29.4208 114.227 30.5032 114.227C31.5728 114.227 32.3612 115.105 32.3612 116.188C32.3612 117.295 31.5387 118.182 30.4691 118.182ZM37.8551 119.119C39.598 119.119 40.8125 118.101 40.821 116.682C40.8125 115.578 40.0753 114.641 39.1335 114.466V114.415C39.9517 114.202 40.4886 113.401 40.4972 112.472C40.4886 111.142 39.3722 110.153 37.8551 110.153C36.321 110.153 35.2045 111.142 35.2131 112.472C35.2045 113.401 35.7415 114.202 36.5767 114.415V114.466C35.6179 114.641 34.8807 115.578 34.8892 116.682C34.8807 118.101 36.0952 119.119 37.8551 119.119ZM37.8551 118.182C36.6577 118.182 35.9205 117.568 35.929 116.631C35.9205 115.646 36.7344 114.943 37.8551 114.943C38.9588 114.943 39.7727 115.646 39.7812 116.631C39.7727 117.568 39.0355 118.182 37.8551 118.182ZM37.8551 114.04C36.9006 114.04 36.2273 113.443 36.2358 112.54C36.2273 111.653 36.875 111.074 37.8551 111.074C38.8182 111.074 39.4659 111.653 39.4744 112.54C39.4659 113.443 38.7926 114.04 37.8551 114.04ZM42.4712 121.455H43.4769V117.994H43.5621C43.7837 118.352 44.2099 119.136 45.4712 119.136C47.1076 119.136 48.2496 117.824 48.2496 115.744C48.2496 113.682 47.1076 112.369 45.4542 112.369C44.1758 112.369 43.7837 113.153 43.5621 113.494H43.4428V112.455H42.4712V121.455ZM43.4599 115.727C43.4599 114.261 44.1076 113.273 45.3349 113.273C46.6133 113.273 47.244 114.347 47.244 115.727C47.244 117.125 46.5962 118.233 45.3349 118.233C44.1246 118.233 43.4599 117.21 43.4599 115.727ZM50.2642 112.455H49.1051L51.1847 115.727L49.1051 119H50.2642L51.8324 116.46L53.4006 119H54.5597L52.446 115.727L54.5597 112.455H53.4006L51.8324 115.131L50.2642 112.455Z" fill="#039855"/>
<rect width="1024" height="20" transform="translate(16 156)" fill="#6CE9A6" fill-opacity="0.2"/>
<path d="M23.9716 162.273H22.9148L20.733 163.722V164.795L22.8636 163.381H22.9148V171H23.9716V162.273ZM27.483 169.807H26.392L26.3409 170.284C26.2173 171.439 25.9744 172.589 25.8636 173.131H26.6307C26.8352 172.551 27.2699 171.239 27.4148 170.267L27.483 169.807ZM31.8711 171.119C33.7972 171.119 34.9052 169.487 34.9052 166.636C34.9052 163.807 33.7802 162.153 31.8711 162.153C29.962 162.153 28.837 163.807 28.837 166.636C28.837 169.487 29.945 171.119 31.8711 171.119ZM31.8711 170.182C30.6012 170.182 29.8597 168.908 29.8597 166.636C29.8597 164.369 30.6097 163.074 31.8711 163.074C33.1325 163.074 33.8825 164.369 33.8825 166.636C33.8825 168.908 33.141 170.182 31.8711 170.182ZM36.5245 171H42.0302V170.062H37.9734V169.994L39.9336 167.898C41.4336 166.291 41.8768 165.541 41.8768 164.574C41.8768 163.227 40.7859 162.153 39.2518 162.153C37.7219 162.153 36.5586 163.193 36.5586 164.727H37.5643C37.5643 163.734 38.2077 163.074 39.2177 163.074C40.1637 163.074 40.8881 163.653 40.8881 164.574C40.8881 165.379 40.4151 165.976 39.4052 167.08L36.5245 170.233V171ZM43.3981 169.21H47.506V171H48.5117V169.21H49.7049V168.273H48.5117V162.273H47.2333L43.3981 168.341V169.21ZM47.506 168.273H44.5401V168.205L47.4379 163.619H47.506V168.273ZM51.3189 173.455H52.3246V169.994H52.4098C52.6314 170.352 53.0575 171.136 54.3189 171.136C55.9553 171.136 57.0973 169.824 57.0973 167.744C57.0973 165.682 55.9553 164.369 54.3018 164.369C53.0234 164.369 52.6314 165.153 52.4098 165.494H52.2905V164.455H51.3189V173.455ZM52.3075 167.727C52.3075 166.261 52.9553 165.273 54.1825 165.273C55.4609 165.273 56.0916 166.347 56.0916 167.727C56.0916 169.125 55.4439 170.233 54.1825 170.233C52.9723 170.233 52.3075 169.21 52.3075 167.727ZM59.1119 164.455H57.9528L60.0323 167.727L57.9528 171H59.1119L60.68 168.46L62.2482 171H63.4073L61.2937 167.727L63.4073 164.455H62.2482L60.68 167.131L59.1119 164.455Z" fill="#039855"/>
<rect width="1280" height="20" transform="translate(16 208)" fill="#6CE9A6" fill-opacity="0.2"/>
<path d="M23.9716 214.273H22.9148L20.733 215.722V216.795L22.8636 215.381H22.9148V223H23.9716V214.273ZM27.483 221.807H26.392L26.3409 222.284C26.2173 223.439 25.9744 224.589 25.8636 225.131H26.6307C26.8352 224.551 27.2699 223.239 27.4148 222.267L27.483 221.807ZM29.3292 223H34.8349V222.062H30.7781V221.994L32.7383 219.898C34.2383 218.291 34.6815 217.541 34.6815 216.574C34.6815 215.227 33.5906 214.153 32.0565 214.153C30.5266 214.153 29.3633 215.193 29.3633 216.727H30.369C30.369 215.734 31.0124 215.074 32.0224 215.074C32.9684 215.074 33.6928 215.653 33.6928 216.574C33.6928 217.379 33.2198 217.976 32.2099 219.08L29.3292 222.233V223ZM39.3903 223.119C41.1332 223.119 42.3477 222.101 42.3562 220.682C42.3477 219.578 41.6104 218.641 40.6687 218.466V218.415C41.4869 218.202 42.0238 217.401 42.0323 216.472C42.0238 215.142 40.9073 214.153 39.3903 214.153C37.8562 214.153 36.7397 215.142 36.7482 216.472C36.7397 217.401 37.2766 218.202 38.1119 218.415V218.466C37.1531 218.641 36.4158 219.578 36.4244 220.682C36.4158 222.101 37.6303 223.119 39.3903 223.119ZM39.3903 222.182C38.1928 222.182 37.4556 221.568 37.4641 220.631C37.4556 219.646 38.2695 218.943 39.3903 218.943C40.494 218.943 41.3079 219.646 41.3164 220.631C41.3079 221.568 40.5707 222.182 39.3903 222.182ZM39.3903 218.04C38.4357 218.04 37.7624 217.443 37.771 216.54C37.7624 215.653 38.4102 215.074 39.3903 215.074C40.3533 215.074 41.0011 215.653 41.0096 216.54C41.0011 217.443 40.3278 218.04 39.3903 218.04ZM46.8359 223.119C48.7621 223.119 49.87 221.487 49.87 218.636C49.87 215.807 48.745 214.153 46.8359 214.153C44.9268 214.153 43.8018 215.807 43.8018 218.636C43.8018 221.487 44.9098 223.119 46.8359 223.119ZM46.8359 222.182C45.5661 222.182 44.8246 220.908 44.8246 218.636C44.8246 216.369 45.5746 215.074 46.8359 215.074C48.0973 215.074 48.8473 216.369 48.8473 218.636C48.8473 220.908 48.1058 222.182 46.8359 222.182ZM51.5064 225.455H52.5121V221.994H52.5973C52.8189 222.352 53.245 223.136 54.5064 223.136C56.1428 223.136 57.2848 221.824 57.2848 219.744C57.2848 217.682 56.1428 216.369 54.4893 216.369C53.2109 216.369 52.8189 217.153 52.5973 217.494H52.478V216.455H51.5064V225.455ZM52.495 219.727C52.495 218.261 53.1428 217.273 54.37 217.273C55.6484 217.273 56.2791 218.347 56.2791 219.727C56.2791 221.125 55.6314 222.233 54.37 222.233C53.1598 222.233 52.495 221.21 52.495 219.727ZM59.2994 216.455H58.1403L60.2198 219.727L58.1403 223H59.2994L60.8675 220.46L62.4357 223H63.5948L61.4812 219.727L63.5948 216.455H62.4357L60.8675 219.131L59.2994 216.455Z" fill="#039855"/>
<rect width="480" height="20" transform="translate(16)" fill="#6CE9A6" fill-opacity="0.2"/>
<path d="M20.6989 13.2102H24.8068V15H25.8125V13.2102H27.0057V12.2727H25.8125V6.27273H24.5341L20.6989 12.3409V13.2102ZM24.8068 12.2727H21.8409V12.2045L24.7386 7.61932H24.8068V12.2727ZM31.3981 15.1193C33.141 15.1193 34.3555 14.1009 34.364 12.6818C34.3555 11.5781 33.6183 10.6406 32.6765 10.4659V10.4148C33.4947 10.2017 34.0316 9.40057 34.0401 8.47159C34.0316 7.14205 32.9151 6.15341 31.3981 6.15341C29.864 6.15341 28.7475 7.14205 28.756 8.47159C28.7475 9.40057 29.2844 10.2017 30.1197 10.4148V10.4659C29.1609 10.6406 28.4237 11.5781 28.4322 12.6818C28.4237 14.1009 29.6381 15.1193 31.3981 15.1193ZM31.3981 14.1818C30.2006 14.1818 29.4634 13.5682 29.4719 12.6307C29.4634 11.6463 30.2773 10.9432 31.3981 10.9432C32.5018 10.9432 33.3157 11.6463 33.3242 12.6307C33.3157 13.5682 32.5785 14.1818 31.3981 14.1818ZM31.3981 10.0398C30.4435 10.0398 29.7702 9.44318 29.7788 8.53977C29.7702 7.65341 30.418 7.07386 31.3981 7.07386C32.3612 7.07386 33.0089 7.65341 33.0174 8.53977C33.0089 9.44318 32.3356 10.0398 31.3981 10.0398ZM38.8438 15.1193C40.7699 15.1193 41.8778 13.4872 41.8778 10.6364C41.8778 7.80682 40.7528 6.15341 38.8438 6.15341C36.9347 6.15341 35.8097 7.80682 35.8097 10.6364C35.8097 13.4872 36.9176 15.1193 38.8438 15.1193ZM38.8438 14.1818C37.5739 14.1818 36.8324 12.9077 36.8324 10.6364C36.8324 8.36932 37.5824 7.07386 38.8438 7.07386C40.1051 7.07386 40.8551 8.36932 40.8551 10.6364C40.8551 12.9077 40.1136 14.1818 38.8438 14.1818ZM43.5142 17.4545H44.5199V13.9943H44.6051C44.8267 14.3523 45.2528 15.1364 46.5142 15.1364C48.1506 15.1364 49.2926 13.8239 49.2926 11.7443C49.2926 9.68182 48.1506 8.36932 46.4972 8.36932C45.2188 8.36932 44.8267 9.15341 44.6051 9.49432H44.4858V8.45455H43.5142V17.4545ZM44.5028 11.7273C44.5028 10.2614 45.1506 9.27273 46.3778 9.27273C47.6562 9.27273 48.2869 10.3466 48.2869 11.7273C48.2869 13.125 47.6392 14.233 46.3778 14.233C45.1676 14.233 44.5028 13.2102 44.5028 11.7273ZM51.3072 8.45455H50.1481L52.2276 11.7273L50.1481 15H51.3072L52.8754 12.4602L54.4435 15H55.6026L53.489 11.7273L55.6026 8.45455H54.4435L52.8754 11.1307L51.3072 8.45455Z" fill="#039855"/>
</svg>
