<svg width="1200" height="627" viewBox="0 0 1200 627" fill="none" xmlns="http://www.w3.org/2000/svg">
<path d="M443.851 419.3V337.88H472.348C478.706 337.88 483.979 338.966 488.167 341.137C492.354 343.231 495.456 346.139 497.472 349.861C499.565 353.505 500.612 357.654 500.612 362.306C500.612 366.726 499.604 370.797 497.588 374.519C495.649 378.164 492.587 381.072 488.399 383.243C484.212 385.414 478.861 386.5 472.348 386.5H456.18V419.3H443.851ZM456.18 376.38H471.766C477.582 376.38 481.731 375.14 484.212 372.658C486.771 370.099 488.05 366.649 488.05 362.306C488.05 357.809 486.771 354.32 484.212 351.838C481.731 349.279 477.582 348 471.766 348H456.18V376.38ZM536.138 420.696C530.632 420.696 525.67 419.455 521.25 416.974C516.907 414.415 513.457 410.887 510.898 406.389C508.339 401.814 507.059 396.503 507.059 390.454C507.059 384.406 508.339 379.133 510.898 374.636C513.534 370.061 517.062 366.533 521.482 364.051C525.902 361.492 530.826 360.213 536.254 360.213C541.76 360.213 546.684 361.492 551.026 364.051C555.446 366.533 558.935 370.061 561.494 374.636C564.131 379.133 565.449 384.406 565.449 390.454C565.449 396.503 564.131 401.814 561.494 406.389C558.935 410.887 555.446 414.415 551.026 416.974C546.606 419.455 541.643 420.696 536.138 420.696ZM536.138 410.111C539.085 410.111 541.799 409.375 544.28 407.902C546.839 406.428 548.894 404.257 550.445 401.388C551.995 398.441 552.771 394.797 552.771 390.454C552.771 386.112 551.995 382.506 550.445 379.637C548.971 376.691 546.955 374.481 544.396 373.007C541.915 371.534 539.201 370.797 536.254 370.797C533.308 370.797 530.555 371.534 527.996 373.007C525.515 374.481 523.499 376.691 521.948 379.637C520.397 382.506 519.621 386.112 519.621 390.454C519.621 394.797 520.397 398.441 521.948 401.388C523.499 404.257 525.515 406.428 527.996 407.902C530.477 409.375 533.191 410.111 536.138 410.111ZM578.782 419.3V335.554H591.112V419.3H578.782ZM606.725 419.3V335.554H619.054V419.3H606.725ZM661.653 420.696C655.992 420.696 650.952 419.455 646.532 416.974C642.189 414.415 638.777 410.887 636.296 406.389C633.815 401.892 632.574 396.658 632.574 390.687C632.574 384.639 633.776 379.327 636.18 374.752C638.661 370.177 642.073 366.61 646.415 364.051C650.835 361.492 655.953 360.213 661.769 360.213C667.429 360.213 672.353 361.492 676.541 364.051C680.728 366.533 683.985 369.867 686.311 374.054C688.637 378.241 689.801 382.855 689.801 387.896C689.801 388.671 689.762 389.524 689.684 390.454C689.684 391.307 689.645 392.277 689.568 393.362H644.671C645.058 398.945 646.881 403.21 650.137 406.157C653.472 409.026 657.31 410.46 661.653 410.46C665.142 410.46 668.05 409.685 670.376 408.134C672.78 406.506 674.563 404.335 675.727 401.621H688.056C686.505 407.049 683.403 411.585 678.751 415.229C674.176 418.874 668.476 420.696 661.653 420.696ZM661.653 370.332C657.543 370.332 653.898 371.573 650.719 374.054C647.54 376.458 645.601 380.102 644.903 384.988H677.471C677.239 380.49 675.649 376.923 672.702 374.287C669.756 371.65 666.072 370.332 661.653 370.332ZM702.593 419.3V361.609H713.527L714.457 371.728C716.241 368.161 718.838 365.369 722.25 363.353C725.74 361.26 729.733 360.213 734.231 360.213C741.21 360.213 746.676 362.384 750.631 366.726C754.663 371.069 756.679 377.544 756.679 386.151V419.3H744.466V387.43C744.466 376.264 739.891 370.681 730.741 370.681C726.166 370.681 722.367 372.309 719.342 375.566C716.396 378.823 714.923 383.476 714.923 389.524V419.3H702.593Z" fill="#1A202C"/>
<path fill-rule="evenodd" clip-rule="evenodd" d="M604.912 143.363C642.016 175.762 660.875 204.05 660.875 228.917C660.875 264.131 633.391 289.292 600.5 289.292C567.609 289.292 540.125 264.131 540.125 228.917C540.125 204.05 558.984 175.762 596.088 143.363L600.5 139.511L604.912 143.363ZM553.542 228.916C553.542 256.443 574.767 275.875 600.5 275.875C626.232 275.875 647.458 256.443 647.458 228.916C647.458 209.803 631.985 185.758 600.5 157.383C569.015 185.758 553.542 209.803 553.542 228.916ZM600.5 255.75V269.167C622.729 269.167 640.75 251.146 640.75 228.917H627.333C627.333 243.736 615.32 255.75 600.5 255.75Z" fill="#12B76A"/>
</svg>
