<svg width="801" height="630" viewBox="0 0 801 630" fill="none" xmlns="http://www.w3.org/2000/svg">
<rect x="0.5" y="600.5" width="44.6844" height="29" rx="4.5" fill="#6CE9A6" fill-opacity="0.2" stroke="#12B76A"/>
<rect x="0.5" y="540.5" width="50.8745" height="29" rx="4.5" fill="#6CE9A6" fill-opacity="0.2" stroke="#12B76A"/>
<rect x="0.5" y="480.5" width="59.1511" height="29" rx="4.5" fill="#6CE9A6" fill-opacity="0.2" stroke="#12B76A"/>
<rect x="0.5" y="420.5" width="67.5266" height="29" rx="4.5" fill="#6CE9A6" fill-opacity="0.2" stroke="#12B76A"/>
<rect x="0.5" y="360.5" width="78.9477" height="29" rx="4.5" fill="#6CE9A6" fill-opacity="0.2" stroke="#12B76A"/>
<rect x="0.5" y="300.5" width="93.7248" height="29" rx="4.5" fill="#6CE9A6" fill-opacity="0.2" stroke="#12B76A"/>
<rect x="0.5" y="240.5" width="113.211" height="29" rx="4.5" fill="#6CE9A6" fill-opacity="0.2" stroke="#12B76A"/>
<rect x="0.5" y="180.5" width="140.534" height="29" rx="4.5" fill="#6CE9A6" fill-opacity="0.2" stroke="#12B76A"/>
<rect x="0.5" y="120.5" width="181.738" height="29" rx="4.5" fill="#6CE9A6" fill-opacity="0.2" stroke="#12B76A"/>
<rect x="0.5" y="60.5" width="250.264" height="29" rx="4.5" fill="#6CE9A6" fill-opacity="0.2" stroke="#12B76A"/>
<rect x="0.5" y="0.5" width="387.318" height="29" rx="4.5" fill="#6CE9A6" fill-opacity="0.2" stroke="#12B76A"/>
<rect x="274.606" y="600.5" width="44.6844" height="29" rx="4.5" fill="#6CE9A6" fill-opacity="0.2" stroke="#12B76A"/>
<rect x="299.367" y="540.5" width="50.8745" height="29" rx="4.5" fill="#6CE9A6" fill-opacity="0.2" stroke="#12B76A"/>
<rect x="330.189" y="480.5" width="58.3897" height="29" rx="4.5" fill="#6CE9A6" fill-opacity="0.2" stroke="#12B76A"/>
<rect x="365.975" y="420.5" width="67.5266" height="29" rx="4.5" fill="#6CE9A6" fill-opacity="0.2" stroke="#12B76A"/>
<rect x="411.66" y="360.5" width="78.9477" height="29" rx="4.5" fill="#6CE9A6" fill-opacity="0.2" stroke="#12B76A"/>
<rect x="470.768" y="300.5" width="93.7248" height="29" rx="4.5" fill="#6CE9A6" fill-opacity="0.2" stroke="#12B76A"/>
<rect x="548.713" y="240.5" width="113.211" height="29" rx="4.5" fill="#6CE9A6" fill-opacity="0.2" stroke="#12B76A"/>
<rect x="658.006" y="180.5" width="140.534" height="29" rx="4.5" fill="#6CE9A6" fill-opacity="0.2" stroke="#12B76A"/>
<rect x="548.713" y="600.5" width="44.6844" height="29" rx="4.5" fill="#6CE9A6" fill-opacity="0.2" stroke="#12B76A"/>
<rect x="598.234" y="540.5" width="50.8745" height="29" rx="4.5" fill="#6CE9A6" fill-opacity="0.2" stroke="#12B76A"/>
<rect x="659.117" y="480.5" width="58.3897" height="29" rx="4.5" fill="#6CE9A6" fill-opacity="0.2" stroke="#12B76A"/>
<rect x="731.451" y="420.5" width="67.5266" height="29" rx="4.5" fill="#6CE9A6" fill-opacity="0.2" stroke="#12B76A"/>
<rect x="137.553" y="600.5" width="44.6844" height="29" rx="4.5" fill="#6CE9A6" fill-opacity="0.2" stroke="#12B76A"/>
<rect x="149.934" y="540.5" width="50.8745" height="29" rx="4.5" fill="#6CE9A6" fill-opacity="0.2" stroke="#12B76A"/>
<rect x="165.725" y="480.5" width="58.3897" height="29" rx="4.5" fill="#6CE9A6" fill-opacity="0.2" stroke="#12B76A"/>
<rect x="183.238" y="420.5" width="67.5266" height="29" rx="4.5" fill="#6CE9A6" fill-opacity="0.2" stroke="#12B76A"/>
<rect x="206.08" y="360.5" width="78.9477" height="29" rx="4.5" fill="#6CE9A6" fill-opacity="0.2" stroke="#12B76A"/>
<rect x="235.634" y="300.5" width="93.7248" height="29" rx="4.5" fill="#6CE9A6" fill-opacity="0.2" stroke="#12B76A"/>
<rect x="274.606" y="240.5" width="113.211" height="29" rx="4.5" fill="#6CE9A6" fill-opacity="0.2" stroke="#12B76A"/>
<rect x="329.253" y="180.5" width="140.534" height="29" rx="4.5" fill="#6CE9A6" fill-opacity="0.2" stroke="#12B76A"/>
<rect x="411.66" y="120.5" width="181.738" height="29" rx="4.5" fill="#6CE9A6" fill-opacity="0.2" stroke="#12B76A"/>
<rect x="548.713" y="60.5" width="250.264" height="29" rx="4.5" fill="#6CE9A6" fill-opacity="0.2" stroke="#12B76A"/>
<rect x="411.66" y="600.5" width="44.6844" height="29" rx="4.5" fill="#6CE9A6" fill-opacity="0.2" stroke="#12B76A"/>
<rect x="448.801" y="540.5" width="50.8745" height="29" rx="4.5" fill="#6CE9A6" fill-opacity="0.2" stroke="#12B76A"/>
<rect x="494.653" y="480.5" width="58.3897" height="29" rx="4.5" fill="#6CE9A6" fill-opacity="0.2" stroke="#12B76A"/>
<rect x="548.713" y="420.5" width="67.5266" height="29" rx="4.5" fill="#6CE9A6" fill-opacity="0.2" stroke="#12B76A"/>
<rect x="617.24" y="360.5" width="78.9477" height="29" rx="4.5" fill="#6CE9A6" fill-opacity="0.2" stroke="#12B76A"/>
<rect x="705.901" y="300.5" width="93.7248" height="29" rx="4.5" fill="#6CE9A6" fill-opacity="0.2" stroke="#12B76A"/>
<rect x="685.766" y="600.5" width="44.6844" height="29" rx="4.5" fill="#6CE9A6" fill-opacity="0.2" stroke="#12B76A"/>
<rect x="747.668" y="540.5" width="50.8745" height="29" rx="4.5" fill="#6CE9A6" fill-opacity="0.2" stroke="#12B76A"/>
<rect x="69.0266" y="600.5" width="44.6844" height="29" rx="4.5" fill="#6CE9A6" fill-opacity="0.2" stroke="#12B76A"/>
<rect x="75.2168" y="540.5" width="50.8745" height="29" rx="4.5" fill="#6CE9A6" fill-opacity="0.2" stroke="#12B76A"/>
<rect x="83.4934" y="480.5" width="58.3897" height="29" rx="4.5" fill="#6CE9A6" fill-opacity="0.2" stroke="#12B76A"/>
<rect x="91.8689" y="420.5" width="67.5266" height="29" rx="4.5" fill="#6CE9A6" fill-opacity="0.2" stroke="#12B76A"/>
<rect x="103.29" y="360.5" width="78.9477" height="29" rx="4.5" fill="#6CE9A6" fill-opacity="0.2" stroke="#12B76A"/>
<rect x="118.067" y="300.5" width="93.7248" height="29" rx="4.5" fill="#6CE9A6" fill-opacity="0.2" stroke="#12B76A"/>
<rect x="137.553" y="240.5" width="113.211" height="29" rx="4.5" fill="#6CE9A6" fill-opacity="0.2" stroke="#12B76A"/>
<rect x="164.876" y="180.5" width="140.534" height="29" rx="4.5" fill="#6CE9A6" fill-opacity="0.2" stroke="#12B76A"/>
<rect x="206.08" y="120.5" width="181.738" height="29" rx="4.5" fill="#6CE9A6" fill-opacity="0.2" stroke="#12B76A"/>
<rect x="274.606" y="60.5" width="250.264" height="29" rx="4.5" fill="#6CE9A6" fill-opacity="0.2" stroke="#12B76A"/>
<rect x="411.66" y="0.5" width="387.318" height="29" rx="4.5" fill="#6CE9A6" fill-opacity="0.2" stroke="#12B76A"/>
<rect x="343.133" y="600.5" width="44.6844" height="29" rx="4.5" fill="#6CE9A6" fill-opacity="0.2" stroke="#12B76A"/>
<rect x="374.084" y="540.5" width="50.8745" height="29" rx="4.5" fill="#6CE9A6" fill-opacity="0.2" stroke="#12B76A"/>
<rect x="412.421" y="480.5" width="58.3897" height="29" rx="4.5" fill="#6CE9A6" fill-opacity="0.2" stroke="#12B76A"/>
<rect x="457.344" y="420.5" width="67.5266" height="29" rx="4.5" fill="#6CE9A6" fill-opacity="0.2" stroke="#12B76A"/>
<rect x="514.45" y="360.5" width="78.9477" height="29" rx="4.5" fill="#6CE9A6" fill-opacity="0.2" stroke="#12B76A"/>
<rect x="588.334" y="300.5" width="93.7248" height="29" rx="4.5" fill="#6CE9A6" fill-opacity="0.2" stroke="#12B76A"/>
<rect x="685.766" y="240.5" width="113.211" height="29" rx="4.5" fill="#6CE9A6" fill-opacity="0.2" stroke="#12B76A"/>
<rect x="617.24" y="600.5" width="44.6844" height="29" rx="4.5" fill="#6CE9A6" fill-opacity="0.2" stroke="#12B76A"/>
<rect x="672.951" y="540.5" width="50.8745" height="29" rx="4.5" fill="#6CE9A6" fill-opacity="0.2" stroke="#12B76A"/>
<rect x="741.349" y="480.5" width="59.1511" height="29" rx="4.5" fill="#6CE9A6" fill-opacity="0.2" stroke="#12B76A"/>
<rect x="206.08" y="600.5" width="44.6844" height="29" rx="4.5" fill="#6CE9A6" fill-opacity="0.2" stroke="#12B76A"/>
<rect x="224.65" y="540.5" width="50.8745" height="29" rx="4.5" fill="#6CE9A6" fill-opacity="0.2" stroke="#12B76A"/>
<rect x="247.957" y="480.5" width="58.3897" height="29" rx="4.5" fill="#6CE9A6" fill-opacity="0.2" stroke="#12B76A"/>
<rect x="274.606" y="420.5" width="67.5266" height="29" rx="4.5" fill="#6CE9A6" fill-opacity="0.2" stroke="#12B76A"/>
<rect x="308.87" y="360.5" width="78.9477" height="29" rx="4.5" fill="#6CE9A6" fill-opacity="0.2" stroke="#12B76A"/>
<rect x="353.201" y="300.5" width="93.7248" height="29" rx="4.5" fill="#6CE9A6" fill-opacity="0.2" stroke="#12B76A"/>
<rect x="411.66" y="240.5" width="113.211" height="29" rx="4.5" fill="#6CE9A6" fill-opacity="0.2" stroke="#12B76A"/>
<rect x="493.629" y="180.5" width="140.534" height="29" rx="4.5" fill="#6CE9A6" fill-opacity="0.2" stroke="#12B76A"/>
<rect x="617.24" y="120.5" width="181.738" height="29" rx="4.5" fill="#6CE9A6" fill-opacity="0.2" stroke="#12B76A"/>
<rect x="480.186" y="600.5" width="44.6844" height="29" rx="4.5" fill="#6CE9A6" fill-opacity="0.2" stroke="#12B76A"/>
<rect x="523.517" y="540.5" width="50.8745" height="29" rx="4.5" fill="#6CE9A6" fill-opacity="0.2" stroke="#12B76A"/>
<rect x="576.885" y="480.5" width="58.3897" height="29" rx="4.5" fill="#6CE9A6" fill-opacity="0.2" stroke="#12B76A"/>
<rect x="640.082" y="420.5" width="67.5266" height="29" rx="4.5" fill="#6CE9A6" fill-opacity="0.2" stroke="#12B76A"/>
<rect x="720.03" y="360.5" width="78.9477" height="29" rx="4.5" fill="#6CE9A6" fill-opacity="0.2" stroke="#12B76A"/>
<rect x="754.293" y="600.5" width="44.6844" height="29" rx="4.5" fill="#6CE9A6" fill-opacity="0.2" stroke="#12B76A"/>
</svg>
