<svg width="803" height="480" viewBox="0 0 803 480" fill="none" xmlns="http://www.w3.org/2000/svg">
<rect x="0.5" y="450.5" width="44.6844" height="29" rx="4.5" fill="#6CE9A6" fill-opacity="0.2" stroke="#12B76A"/>
<rect x="0.5" y="405.5" width="50.8745" height="29" rx="4.5" fill="#6CE9A6" fill-opacity="0.2" stroke="#12B76A"/>
<rect x="0.5" y="360.5" width="59.1511" height="29" rx="4.5" fill="#6CE9A6" fill-opacity="0.2" stroke="#12B76A"/>
<rect x="0.5" y="315.5" width="67.5266" height="29" rx="4.5" fill="#6CE9A6" fill-opacity="0.2" stroke="#12B76A"/>
<rect x="0.5" y="270.5" width="78.9477" height="29" rx="4.5" fill="#6CE9A6" fill-opacity="0.2" stroke="#12B76A"/>
<rect x="0.5" y="225.5" width="93.7248" height="29" rx="4.5" fill="#6CE9A6" fill-opacity="0.2" stroke="#12B76A"/>
<rect x="0.5" y="180.5" width="113.211" height="29" rx="4.5" fill="#6CE9A6" fill-opacity="0.2" stroke="#12B76A"/>
<rect x="0.5" y="135.5" width="140.534" height="29" rx="4.5" fill="#6CE9A6" fill-opacity="0.2" stroke="#12B76A"/>
<rect x="0.5" y="90.5" width="181.738" height="29" rx="4.5" fill="#6CE9A6" fill-opacity="0.2" stroke="#12B76A"/>
<rect x="0.5" y="45.5" width="250.264" height="29" rx="4.5" fill="#6CE9A6" fill-opacity="0.2" stroke="#12B76A"/>
<rect x="0.5" y="0.5" width="387.318" height="29" rx="4.5" fill="#6CE9A6" fill-opacity="0.2" stroke="#12B76A"/>
<rect x="275.237" y="450.5" width="44.6844" height="29" rx="4.5" fill="#6CE9A6" fill-opacity="0.2" stroke="#12B76A"/>
<rect x="299.998" y="405.5" width="50.8745" height="29" rx="4.5" fill="#6CE9A6" fill-opacity="0.2" stroke="#12B76A"/>
<rect x="330.82" y="360.5" width="58.3897" height="29" rx="4.5" fill="#6CE9A6" fill-opacity="0.2" stroke="#12B76A"/>
<rect x="366.606" y="315.5" width="67.5266" height="29" rx="4.5" fill="#6CE9A6" fill-opacity="0.2" stroke="#12B76A"/>
<rect x="412.291" y="270.5" width="78.9477" height="29" rx="4.5" fill="#6CE9A6" fill-opacity="0.2" stroke="#12B76A"/>
<rect x="471.399" y="225.5" width="93.7248" height="29" rx="4.5" fill="#6CE9A6" fill-opacity="0.2" stroke="#12B76A"/>
<rect x="549.344" y="180.5" width="113.211" height="29" rx="4.5" fill="#6CE9A6" fill-opacity="0.2" stroke="#12B76A"/>
<rect x="658.637" y="135.5" width="140.534" height="29" rx="4.5" fill="#6CE9A6" fill-opacity="0.2" stroke="#12B76A"/>
<rect x="549.975" y="450.5" width="44.6844" height="29" rx="4.5" fill="#6CE9A6" fill-opacity="0.2" stroke="#12B76A"/>
<rect x="599.496" y="405.5" width="50.8745" height="29" rx="4.5" fill="#6CE9A6" fill-opacity="0.2" stroke="#12B76A"/>
<rect x="660.379" y="360.5" width="58.3897" height="29" rx="4.5" fill="#6CE9A6" fill-opacity="0.2" stroke="#12B76A"/>
<rect x="732.713" y="315.5" width="67.5266" height="29" rx="4.5" fill="#6CE9A6" fill-opacity="0.2" stroke="#12B76A"/>
<rect x="137.869" y="450.5" width="44.6844" height="29" rx="4.5" fill="#6CE9A6" fill-opacity="0.2" stroke="#12B76A"/>
<rect x="150.249" y="405.5" width="50.8745" height="29" rx="4.5" fill="#6CE9A6" fill-opacity="0.2" stroke="#12B76A"/>
<rect x="166.041" y="360.5" width="58.3897" height="29" rx="4.5" fill="#6CE9A6" fill-opacity="0.2" stroke="#12B76A"/>
<rect x="183.553" y="315.5" width="67.5266" height="29" rx="4.5" fill="#6CE9A6" fill-opacity="0.2" stroke="#12B76A"/>
<rect x="206.396" y="270.5" width="78.9477" height="29" rx="4.5" fill="#6CE9A6" fill-opacity="0.2" stroke="#12B76A"/>
<rect x="235.95" y="225.5" width="93.7248" height="29" rx="4.5" fill="#6CE9A6" fill-opacity="0.2" stroke="#12B76A"/>
<rect x="274.922" y="180.5" width="113.211" height="29" rx="4.5" fill="#6CE9A6" fill-opacity="0.2" stroke="#12B76A"/>
<rect x="329.568" y="135.5" width="140.534" height="29" rx="4.5" fill="#6CE9A6" fill-opacity="0.2" stroke="#12B76A"/>
<rect x="411.975" y="90.5" width="181.738" height="29" rx="4.5" fill="#6CE9A6" fill-opacity="0.2" stroke="#12B76A"/>
<rect x="549.028" y="45.5" width="250.264" height="29" rx="4.5" fill="#6CE9A6" fill-opacity="0.2" stroke="#12B76A"/>
<rect x="412.606" y="450.5" width="44.6844" height="29" rx="4.5" fill="#6CE9A6" fill-opacity="0.2" stroke="#12B76A"/>
<rect x="449.747" y="405.5" width="50.8745" height="29" rx="4.5" fill="#6CE9A6" fill-opacity="0.2" stroke="#12B76A"/>
<rect x="495.599" y="360.5" width="58.3897" height="29" rx="4.5" fill="#6CE9A6" fill-opacity="0.2" stroke="#12B76A"/>
<rect x="549.66" y="315.5" width="67.5266" height="29" rx="4.5" fill="#6CE9A6" fill-opacity="0.2" stroke="#12B76A"/>
<rect x="618.187" y="270.5" width="78.9477" height="29" rx="4.5" fill="#6CE9A6" fill-opacity="0.2" stroke="#12B76A"/>
<rect x="706.849" y="225.5" width="93.7248" height="29" rx="4.5" fill="#6CE9A6" fill-opacity="0.2" stroke="#12B76A"/>
<rect x="687.343" y="450.5" width="44.6844" height="29" rx="4.5" fill="#6CE9A6" fill-opacity="0.2" stroke="#12B76A"/>
<rect x="749.245" y="405.5" width="50.8745" height="29" rx="4.5" fill="#6CE9A6" fill-opacity="0.2" stroke="#12B76A"/>
<rect x="69.1843" y="450.5" width="44.6844" height="29" rx="4.5" fill="#6CE9A6" fill-opacity="0.2" stroke="#12B76A"/>
<rect x="75.3745" y="405.5" width="50.8745" height="29" rx="4.5" fill="#6CE9A6" fill-opacity="0.2" stroke="#12B76A"/>
<rect x="83.6511" y="360.5" width="58.3897" height="29" rx="4.5" fill="#6CE9A6" fill-opacity="0.2" stroke="#12B76A"/>
<rect x="92.0266" y="315.5" width="67.5266" height="29" rx="4.5" fill="#6CE9A6" fill-opacity="0.2" stroke="#12B76A"/>
<rect x="103.448" y="270.5" width="78.9477" height="29" rx="4.5" fill="#6CE9A6" fill-opacity="0.2" stroke="#12B76A"/>
<rect x="118.225" y="225.5" width="93.7248" height="29" rx="4.5" fill="#6CE9A6" fill-opacity="0.2" stroke="#12B76A"/>
<rect x="137.711" y="180.5" width="113.211" height="29" rx="4.5" fill="#6CE9A6" fill-opacity="0.2" stroke="#12B76A"/>
<rect x="165.034" y="135.5" width="140.534" height="29" rx="4.5" fill="#6CE9A6" fill-opacity="0.2" stroke="#12B76A"/>
<rect x="206.238" y="90.5" width="181.738" height="29" rx="4.5" fill="#6CE9A6" fill-opacity="0.2" stroke="#12B76A"/>
<rect x="274.764" y="45.5" width="250.264" height="29" rx="4.5" fill="#6CE9A6" fill-opacity="0.2" stroke="#12B76A"/>
<rect x="411.817" y="0.5" width="387.318" height="29" rx="4.5" fill="#6CE9A6" fill-opacity="0.2" stroke="#12B76A"/>
<rect x="343.922" y="450.5" width="44.6844" height="29" rx="4.5" fill="#6CE9A6" fill-opacity="0.2" stroke="#12B76A"/>
<rect x="374.873" y="405.5" width="50.8745" height="29" rx="4.5" fill="#6CE9A6" fill-opacity="0.2" stroke="#12B76A"/>
<rect x="413.21" y="360.5" width="58.3897" height="29" rx="4.5" fill="#6CE9A6" fill-opacity="0.2" stroke="#12B76A"/>
<rect x="458.133" y="315.5" width="67.5266" height="29" rx="4.5" fill="#6CE9A6" fill-opacity="0.2" stroke="#12B76A"/>
<rect x="515.239" y="270.5" width="78.9477" height="29" rx="4.5" fill="#6CE9A6" fill-opacity="0.2" stroke="#12B76A"/>
<rect x="589.124" y="225.5" width="93.7248" height="29" rx="4.5" fill="#6CE9A6" fill-opacity="0.2" stroke="#12B76A"/>
<rect x="686.555" y="180.5" width="113.211" height="29" rx="4.5" fill="#6CE9A6" fill-opacity="0.2" stroke="#12B76A"/>
<rect x="618.659" y="450.5" width="44.6844" height="29" rx="4.5" fill="#6CE9A6" fill-opacity="0.2" stroke="#12B76A"/>
<rect x="674.371" y="405.5" width="50.8745" height="29" rx="4.5" fill="#6CE9A6" fill-opacity="0.2" stroke="#12B76A"/>
<rect x="742.768" y="360.5" width="59.1511" height="29" rx="4.5" fill="#6CE9A6" fill-opacity="0.2" stroke="#12B76A"/>
<rect x="206.553" y="450.5" width="44.6844" height="29" rx="4.5" fill="#6CE9A6" fill-opacity="0.2" stroke="#12B76A"/>
<rect x="225.124" y="405.5" width="50.8745" height="29" rx="4.5" fill="#6CE9A6" fill-opacity="0.2" stroke="#12B76A"/>
<rect x="248.43" y="360.5" width="58.3897" height="29" rx="4.5" fill="#6CE9A6" fill-opacity="0.2" stroke="#12B76A"/>
<rect x="275.08" y="315.5" width="67.5266" height="29" rx="4.5" fill="#6CE9A6" fill-opacity="0.2" stroke="#12B76A"/>
<rect x="309.343" y="270.5" width="78.9477" height="29" rx="4.5" fill="#6CE9A6" fill-opacity="0.2" stroke="#12B76A"/>
<rect x="353.675" y="225.5" width="93.7248" height="29" rx="4.5" fill="#6CE9A6" fill-opacity="0.2" stroke="#12B76A"/>
<rect x="412.133" y="180.5" width="113.211" height="29" rx="4.5" fill="#6CE9A6" fill-opacity="0.2" stroke="#12B76A"/>
<rect x="494.103" y="135.5" width="140.534" height="29" rx="4.5" fill="#6CE9A6" fill-opacity="0.2" stroke="#12B76A"/>
<rect x="617.713" y="90.5" width="181.738" height="29" rx="4.5" fill="#6CE9A6" fill-opacity="0.2" stroke="#12B76A"/>
<rect x="481.29" y="450.5" width="44.6844" height="29" rx="4.5" fill="#6CE9A6" fill-opacity="0.2" stroke="#12B76A"/>
<rect x="524.622" y="405.5" width="50.8745" height="29" rx="4.5" fill="#6CE9A6" fill-opacity="0.2" stroke="#12B76A"/>
<rect x="577.989" y="360.5" width="58.3897" height="29" rx="4.5" fill="#6CE9A6" fill-opacity="0.2" stroke="#12B76A"/>
<rect x="641.186" y="315.5" width="67.5266" height="29" rx="4.5" fill="#6CE9A6" fill-opacity="0.2" stroke="#12B76A"/>
<rect x="721.134" y="270.5" width="78.9477" height="29" rx="4.5" fill="#6CE9A6" fill-opacity="0.2" stroke="#12B76A"/>
<rect x="756.028" y="450.5" width="44.6844" height="29" rx="4.5" fill="#6CE9A6" fill-opacity="0.2" stroke="#12B76A"/>
</svg>
