<svg width="833" height="1024" viewBox="0 0 833 1024" fill="none" xmlns="http://www.w3.org/2000/svg">
<rect width="4" height="20" transform="translate(16 16)" fill="#6CE9A6" fill-opacity="0.2"/>
<path d="M20.6989 29.2102H24.8068V31H25.8125V29.2102H27.0057V28.2727H25.8125V22.2727H24.5341L20.6989 28.3409V29.2102ZM24.8068 28.2727H21.8409V28.2045L24.7386 23.6193H24.8068V28.2727ZM28.6197 33.4545H29.6254V29.9943H29.7106C29.9322 30.3523 30.3583 31.1364 31.6197 31.1364C33.256 31.1364 34.3981 29.8239 34.3981 27.7443C34.3981 25.6818 33.256 24.3693 31.6026 24.3693C30.3242 24.3693 29.9322 25.1534 29.7106 25.4943H29.5913V24.4545H28.6197V33.4545ZM29.6083 27.7273C29.6083 26.2614 30.256 25.2727 31.4833 25.2727C32.7617 25.2727 33.3924 26.3466 33.3924 27.7273C33.3924 29.125 32.7447 30.233 31.4833 30.233C30.2731 30.233 29.6083 29.2102 29.6083 27.7273ZM36.4126 24.4545H35.2536L37.3331 27.7273L35.2536 31H36.4126L37.9808 28.4602L39.549 31H40.7081L38.5945 27.7273L40.7081 24.4545H39.549L37.9808 27.1307L36.4126 24.4545Z" fill="#039855"/>
<rect width="8" height="20" transform="translate(16 68)" fill="#6CE9A6" fill-opacity="0.2"/>
<path d="M23.6989 83.1193C25.4418 83.1193 26.6562 82.1009 26.6648 80.6818C26.6562 79.5781 25.919 78.6406 24.9773 78.4659V78.4148C25.7955 78.2017 26.3324 77.4006 26.3409 76.4716C26.3324 75.142 25.2159 74.1534 23.6989 74.1534C22.1648 74.1534 21.0483 75.142 21.0568 76.4716C21.0483 77.4006 21.5852 78.2017 22.4205 78.4148V78.4659C21.4616 78.6406 20.7244 79.5781 20.733 80.6818C20.7244 82.1009 21.9389 83.1193 23.6989 83.1193ZM23.6989 82.1818C22.5014 82.1818 21.7642 81.5682 21.7727 80.6307C21.7642 79.6463 22.5781 78.9432 23.6989 78.9432C24.8026 78.9432 25.6165 79.6463 25.625 80.6307C25.6165 81.5682 24.8793 82.1818 23.6989 82.1818ZM23.6989 78.0398C22.7443 78.0398 22.071 77.4432 22.0795 76.5398C22.071 75.6534 22.7188 75.0739 23.6989 75.0739C24.6619 75.0739 25.3097 75.6534 25.3182 76.5398C25.3097 77.4432 24.6364 78.0398 23.6989 78.0398ZM28.315 85.4545H29.3207V81.9943H29.4059C29.6275 82.3523 30.0536 83.1364 31.315 83.1364C32.9513 83.1364 34.0934 81.8239 34.0934 79.7443C34.0934 77.6818 32.9513 76.3693 31.2979 76.3693C30.0195 76.3693 29.6275 77.1534 29.4059 77.4943H29.2866V76.4545H28.315V85.4545ZM29.3036 79.7273C29.3036 78.2614 29.9513 77.2727 31.1786 77.2727C32.457 77.2727 33.0877 78.3466 33.0877 79.7273C33.0877 81.125 32.44 82.233 31.1786 82.233C29.9684 82.233 29.3036 81.2102 29.3036 79.7273ZM36.108 76.4545H34.9489L37.0284 79.7273L34.9489 83H36.108L37.6761 80.4602L39.2443 83H40.4034L38.2898 79.7273L40.4034 76.4545H39.2443L37.6761 79.1307L36.108 76.4545Z" fill="#039855"/>
<rect width="12" height="20" transform="translate(16 120)" fill="#6CE9A6" fill-opacity="0.2"/>
<path d="M23.9716 126.273H22.9148L20.733 127.722V128.795L22.8636 127.381H22.9148V135H23.9716V126.273ZM26.4815 135H31.9872V134.062H27.9304V133.994L29.8906 131.898C31.3906 130.291 31.8338 129.541 31.8338 128.574C31.8338 127.227 30.7429 126.153 29.2088 126.153C27.679 126.153 26.5156 127.193 26.5156 128.727H27.5213C27.5213 127.734 28.1648 127.074 29.1747 127.074C30.1207 127.074 30.8452 127.653 30.8452 128.574C30.8452 129.379 30.3722 129.976 29.3622 131.08L26.4815 134.233V135ZM33.7642 137.455H34.7699V133.994H34.8551C35.0767 134.352 35.5028 135.136 36.7642 135.136C38.4006 135.136 39.5426 133.824 39.5426 131.744C39.5426 129.682 38.4006 128.369 36.7472 128.369C35.4688 128.369 35.0767 129.153 34.8551 129.494H34.7358V128.455H33.7642V137.455ZM34.7528 131.727C34.7528 130.261 35.4006 129.273 36.6278 129.273C37.9062 129.273 38.5369 130.347 38.5369 131.727C38.5369 133.125 37.8892 134.233 36.6278 134.233C35.4176 134.233 34.7528 133.21 34.7528 131.727ZM41.5572 128.455H40.3981L42.4776 131.727L40.3981 135H41.5572L43.1254 132.46L44.6935 135H45.8526L43.739 131.727L45.8526 128.455H44.6935L43.1254 131.131L41.5572 128.455Z" fill="#039855"/>
<rect width="16" height="20" transform="translate(16 172)" fill="#6CE9A6" fill-opacity="0.2"/>
<path d="M23.9716 178.273H22.9148L20.733 179.722V180.795L22.8636 179.381H22.9148V187H23.9716V178.273ZM29.3793 187.119C31.1435 187.141 32.294 185.811 32.294 184.188C32.294 182.5 31.0455 181.29 29.5497 181.29C28.6506 181.29 27.8793 181.729 27.402 182.449H27.3338C27.3381 180.322 28.1648 179.091 29.5156 179.091C30.4361 179.091 30.9901 179.67 31.1861 180.455H32.2259C32.0128 179.099 30.9815 178.153 29.5156 178.153C27.5511 178.153 26.3452 179.892 26.3452 182.977C26.3452 186.203 27.9474 187.102 29.3793 187.119ZM29.3793 186.182C28.2841 186.182 27.483 185.249 27.4872 184.205C27.4915 183.161 28.331 182.227 29.4134 182.227C30.483 182.227 31.2713 183.105 31.2713 184.188C31.2713 185.295 30.4489 186.182 29.3793 186.182ZM33.9869 189.455H34.9925V185.994H35.0778C35.2994 186.352 35.7255 187.136 36.9869 187.136C38.6232 187.136 39.7653 185.824 39.7653 183.744C39.7653 181.682 38.6232 180.369 36.9698 180.369C35.6914 180.369 35.2994 181.153 35.0778 181.494H34.9585V180.455H33.9869V189.455ZM34.9755 183.727C34.9755 182.261 35.6232 181.273 36.8505 181.273C38.1289 181.273 38.7596 182.347 38.7596 183.727C38.7596 185.125 38.1119 186.233 36.8505 186.233C35.6403 186.233 34.9755 185.21 34.9755 183.727ZM41.7798 180.455H40.6207L42.7003 183.727L40.6207 187H41.7798L43.348 184.46L44.9162 187H46.0753L43.9616 183.727L46.0753 180.455H44.9162L43.348 183.131L41.7798 180.455Z" fill="#039855"/>
<rect width="20" height="20" transform="translate(16 224)" fill="#6CE9A6" fill-opacity="0.2"/>
<path d="M20.9034 239H26.4091V238.062H22.3523V237.994L24.3125 235.898C25.8125 234.291 26.2557 233.541 26.2557 232.574C26.2557 231.227 25.1648 230.153 23.6307 230.153C22.1009 230.153 20.9375 231.193 20.9375 232.727H21.9432C21.9432 231.734 22.5866 231.074 23.5966 231.074C24.5426 231.074 25.267 231.653 25.267 232.574C25.267 233.379 24.794 233.976 23.7841 235.08L20.9034 238.233V239ZM31.0156 239.119C32.9418 239.119 34.0497 237.487 34.0497 234.636C34.0497 231.807 32.9247 230.153 31.0156 230.153C29.1065 230.153 27.9815 231.807 27.9815 234.636C27.9815 237.487 29.0895 239.119 31.0156 239.119ZM31.0156 238.182C29.7457 238.182 29.0043 236.908 29.0043 234.636C29.0043 232.369 29.7543 231.074 31.0156 231.074C32.277 231.074 33.027 232.369 33.027 234.636C33.027 236.908 32.2855 238.182 31.0156 238.182ZM35.6861 241.455H36.6918V237.994H36.777C36.9986 238.352 37.4247 239.136 38.6861 239.136C40.3224 239.136 41.4645 237.824 41.4645 235.744C41.4645 233.682 40.3224 232.369 38.669 232.369C37.3906 232.369 36.9986 233.153 36.777 233.494H36.6577V232.455H35.6861V241.455ZM36.6747 235.727C36.6747 234.261 37.3224 233.273 38.5497 233.273C39.8281 233.273 40.4588 234.347 40.4588 235.727C40.4588 237.125 39.8111 238.233 38.5497 238.233C37.3395 238.233 36.6747 237.21 36.6747 235.727ZM43.479 232.455H42.32L44.3995 235.727L42.32 239H43.479L45.0472 236.46L46.6154 239H47.7745L45.6609 235.727L47.7745 232.455H46.6154L45.0472 235.131L43.479 232.455Z" fill="#039855"/>
<rect width="24" height="20" transform="translate(16 276)" fill="#6CE9A6" fill-opacity="0.2"/>
<path d="M20.9034 291H26.4091V290.062H22.3523V289.994L24.3125 287.898C25.8125 286.291 26.2557 285.541 26.2557 284.574C26.2557 283.227 25.1648 282.153 23.6307 282.153C22.1009 282.153 20.9375 283.193 20.9375 284.727H21.9432C21.9432 283.734 22.5866 283.074 23.5966 283.074C24.5426 283.074 25.267 283.653 25.267 284.574C25.267 285.379 24.794 285.976 23.7841 287.08L20.9034 290.233V291ZM27.777 289.21H31.8849V291H32.8906V289.21H34.0838V288.273H32.8906V282.273H31.6122L27.777 288.341V289.21ZM31.8849 288.273H28.919V288.205L31.8168 283.619H31.8849V288.273ZM35.6978 293.455H36.7035V289.994H36.7887C37.0103 290.352 37.4364 291.136 38.6978 291.136C40.3342 291.136 41.4762 289.824 41.4762 287.744C41.4762 285.682 40.3342 284.369 38.6808 284.369C37.4023 284.369 37.0103 285.153 36.7887 285.494H36.6694V284.455H35.6978V293.455ZM36.6864 287.727C36.6864 286.261 37.3342 285.273 38.5614 285.273C39.8398 285.273 40.4705 286.347 40.4705 287.727C40.4705 289.125 39.8228 290.233 38.5614 290.233C37.3512 290.233 36.6864 289.21 36.6864 287.727ZM43.4908 284.455H42.3317L44.4112 287.727L42.3317 291H43.4908L45.0589 288.46L46.6271 291H47.7862L45.6726 287.727L47.7862 284.455H46.6271L45.0589 287.131L43.4908 284.455Z" fill="#039855"/>
<rect width="32" height="20" transform="translate(16 328)" fill="#6CE9A6" fill-opacity="0.2"/>
<path d="M23.8523 343.119C25.544 343.119 26.8011 342.058 26.8011 340.631C26.8011 339.523 26.1449 338.717 25.0455 338.534V338.466C25.9276 338.197 26.4773 337.473 26.4773 336.489C26.4773 335.253 25.5014 334.153 23.8864 334.153C22.3778 334.153 21.125 335.082 21.0739 336.455H22.0966C22.1349 335.585 22.9616 335.074 23.8693 335.074C24.8324 335.074 25.4545 335.658 25.4545 336.54C25.4545 337.46 24.7344 338.057 23.6989 338.057H23V338.994H23.6989C25.0241 338.994 25.7614 339.668 25.7614 340.631C25.7614 341.555 24.956 342.182 23.8352 342.182C22.8253 342.182 22.0241 341.662 21.9602 340.818H20.8864C20.9503 342.19 22.1605 343.119 23.8523 343.119ZM28.544 343H34.0497V342.062H29.9929V341.994L31.9531 339.898C33.4531 338.291 33.8963 337.541 33.8963 336.574C33.8963 335.227 32.8054 334.153 31.2713 334.153C29.7415 334.153 28.5781 335.193 28.5781 336.727H29.5838C29.5838 335.734 30.2273 335.074 31.2372 335.074C32.1832 335.074 32.9077 335.653 32.9077 336.574C32.9077 337.379 32.4347 337.976 31.4247 339.08L28.544 342.233V343ZM35.8267 345.455H36.8324V341.994H36.9176C37.1392 342.352 37.5653 343.136 38.8267 343.136C40.4631 343.136 41.6051 341.824 41.6051 339.744C41.6051 337.682 40.4631 336.369 38.8097 336.369C37.5312 336.369 37.1392 337.153 36.9176 337.494H36.7983V336.455H35.8267V345.455ZM36.8153 339.727C36.8153 338.261 37.4631 337.273 38.6903 337.273C39.9688 337.273 40.5994 338.347 40.5994 339.727C40.5994 341.125 39.9517 342.233 38.6903 342.233C37.4801 342.233 36.8153 341.21 36.8153 339.727ZM43.6197 336.455H42.4606L44.5401 339.727L42.4606 343H43.6197L45.1879 340.46L46.756 343H47.9151L45.8015 339.727L47.9151 336.455H46.756L45.1879 339.131L43.6197 336.455Z" fill="#039855"/>
<rect width="40" height="20" transform="translate(16 380)" fill="#6CE9A6" fill-opacity="0.2"/>
<path d="M20.6989 393.21H24.8068V395H25.8125V393.21H27.0057V392.273H25.8125V386.273H24.5341L20.6989 392.341V393.21ZM24.8068 392.273H21.8409V392.205L24.7386 387.619H24.8068V392.273ZM31.4492 395.119C33.3754 395.119 34.4833 393.487 34.4833 390.636C34.4833 387.807 33.3583 386.153 31.4492 386.153C29.5401 386.153 28.4151 387.807 28.4151 390.636C28.4151 393.487 29.5231 395.119 31.4492 395.119ZM31.4492 394.182C30.1793 394.182 29.4379 392.908 29.4379 390.636C29.4379 388.369 30.1879 387.074 31.4492 387.074C32.7106 387.074 33.4606 388.369 33.4606 390.636C33.4606 392.908 32.7191 394.182 31.4492 394.182ZM36.1197 397.455H37.1254V393.994H37.2106C37.4322 394.352 37.8583 395.136 39.1197 395.136C40.756 395.136 41.8981 393.824 41.8981 391.744C41.8981 389.682 40.756 388.369 39.1026 388.369C37.8242 388.369 37.4322 389.153 37.2106 389.494H37.0913V388.455H36.1197V397.455ZM37.1083 391.727C37.1083 390.261 37.756 389.273 38.9833 389.273C40.2617 389.273 40.8924 390.347 40.8924 391.727C40.8924 393.125 40.2447 394.233 38.9833 394.233C37.7731 394.233 37.1083 393.21 37.1083 391.727ZM43.9126 388.455H42.7536L44.8331 391.727L42.7536 395H43.9126L45.4808 392.46L47.049 395H48.2081L46.0945 391.727L48.2081 388.455H47.049L45.4808 391.131L43.9126 388.455Z" fill="#039855"/>
<rect width="48" height="20" transform="translate(16 432)" fill="#6CE9A6" fill-opacity="0.2"/>
<path d="M20.6989 445.21H24.8068V447H25.8125V445.21H27.0057V444.273H25.8125V438.273H24.5341L20.6989 444.341V445.21ZM24.8068 444.273H21.8409V444.205L24.7386 439.619H24.8068V444.273ZM31.3981 447.119C33.141 447.119 34.3555 446.101 34.364 444.682C34.3555 443.578 33.6183 442.641 32.6765 442.466V442.415C33.4947 442.202 34.0316 441.401 34.0401 440.472C34.0316 439.142 32.9151 438.153 31.3981 438.153C29.864 438.153 28.7475 439.142 28.756 440.472C28.7475 441.401 29.2844 442.202 30.1197 442.415V442.466C29.1609 442.641 28.4237 443.578 28.4322 444.682C28.4237 446.101 29.6381 447.119 31.3981 447.119ZM31.3981 446.182C30.2006 446.182 29.4634 445.568 29.4719 444.631C29.4634 443.646 30.2773 442.943 31.3981 442.943C32.5018 442.943 33.3157 443.646 33.3242 444.631C33.3157 445.568 32.5785 446.182 31.3981 446.182ZM31.3981 442.04C30.4435 442.04 29.7702 441.443 29.7788 440.54C29.7702 439.653 30.418 439.074 31.3981 439.074C32.3612 439.074 33.0089 439.653 33.0174 440.54C33.0089 441.443 32.3356 442.04 31.3981 442.04ZM36.0142 449.455H37.0199V445.994H37.1051C37.3267 446.352 37.7528 447.136 39.0142 447.136C40.6506 447.136 41.7926 445.824 41.7926 443.744C41.7926 441.682 40.6506 440.369 38.9972 440.369C37.7188 440.369 37.3267 441.153 37.1051 441.494H36.9858V440.455H36.0142V449.455ZM37.0028 443.727C37.0028 442.261 37.6506 441.273 38.8778 441.273C40.1562 441.273 40.7869 442.347 40.7869 443.727C40.7869 445.125 40.1392 446.233 38.8778 446.233C37.6676 446.233 37.0028 445.21 37.0028 443.727ZM43.8072 440.455H42.6481L44.7276 443.727L42.6481 447H43.8072L45.3754 444.46L46.9435 447H48.1026L45.989 443.727L48.1026 440.455H46.9435L45.3754 443.131L43.8072 440.455Z" fill="#039855"/>
<rect width="64" height="20" transform="translate(16 484)" fill="#6CE9A6" fill-opacity="0.2"/>
<path d="M23.8011 499.119C25.5653 499.141 26.7159 497.811 26.7159 496.188C26.7159 494.5 25.4673 493.29 23.9716 493.29C23.0724 493.29 22.3011 493.729 21.8239 494.449H21.7557C21.7599 492.322 22.5866 491.091 23.9375 491.091C24.858 491.091 25.4119 491.67 25.608 492.455H26.6477C26.4347 491.099 25.4034 490.153 23.9375 490.153C21.973 490.153 20.767 491.892 20.767 494.977C20.767 498.203 22.3693 499.102 23.8011 499.119ZM23.8011 498.182C22.706 498.182 21.9048 497.249 21.9091 496.205C21.9134 495.161 22.7528 494.227 23.8352 494.227C24.9048 494.227 25.6932 495.105 25.6932 496.188C25.6932 497.295 24.8707 498.182 23.8011 498.182ZM28.1871 497.21H32.2951V499H33.3008V497.21H34.494V496.273H33.3008V490.273H32.0224L28.1871 496.341V497.21ZM32.2951 496.273H29.3292V496.205L32.2269 491.619H32.2951V496.273ZM36.108 501.455H37.1136V497.994H37.1989C37.4205 498.352 37.8466 499.136 39.108 499.136C40.7443 499.136 41.8864 497.824 41.8864 495.744C41.8864 493.682 40.7443 492.369 39.0909 492.369C37.8125 492.369 37.4205 493.153 37.1989 493.494H37.0795V492.455H36.108V501.455ZM37.0966 495.727C37.0966 494.261 37.7443 493.273 38.9716 493.273C40.25 493.273 40.8807 494.347 40.8807 495.727C40.8807 497.125 40.233 498.233 38.9716 498.233C37.7614 498.233 37.0966 497.21 37.0966 495.727ZM43.9009 492.455H42.7418L44.8214 495.727L42.7418 499H43.9009L45.4691 496.46L47.0373 499H48.1964L46.0827 495.727L48.1964 492.455H47.0373L45.4691 495.131L43.9009 492.455Z" fill="#039855"/>
<rect width="80" height="20" transform="translate(16 536)" fill="#6CE9A6" fill-opacity="0.2"/>
<path d="M23.6989 551.119C25.4418 551.119 26.6562 550.101 26.6648 548.682C26.6562 547.578 25.919 546.641 24.9773 546.466V546.415C25.7955 546.202 26.3324 545.401 26.3409 544.472C26.3324 543.142 25.2159 542.153 23.6989 542.153C22.1648 542.153 21.0483 543.142 21.0568 544.472C21.0483 545.401 21.5852 546.202 22.4205 546.415V546.466C21.4616 546.641 20.7244 547.578 20.733 548.682C20.7244 550.101 21.9389 551.119 23.6989 551.119ZM23.6989 550.182C22.5014 550.182 21.7642 549.568 21.7727 548.631C21.7642 547.646 22.5781 546.943 23.6989 546.943C24.8026 546.943 25.6165 547.646 25.625 548.631C25.6165 549.568 24.8793 550.182 23.6989 550.182ZM23.6989 546.04C22.7443 546.04 22.071 545.443 22.0795 544.54C22.071 543.653 22.7188 543.074 23.6989 543.074C24.6619 543.074 25.3097 543.653 25.3182 544.54C25.3097 545.443 24.6364 546.04 23.6989 546.04ZM31.1445 551.119C33.0707 551.119 34.1786 549.487 34.1786 546.636C34.1786 543.807 33.0536 542.153 31.1445 542.153C29.2354 542.153 28.1104 543.807 28.1104 546.636C28.1104 549.487 29.2184 551.119 31.1445 551.119ZM31.1445 550.182C29.8746 550.182 29.1332 548.908 29.1332 546.636C29.1332 544.369 29.8832 543.074 31.1445 543.074C32.4059 543.074 33.1559 544.369 33.1559 546.636C33.1559 548.908 32.4144 550.182 31.1445 550.182ZM35.815 553.455H36.8207V549.994H36.9059C37.1275 550.352 37.5536 551.136 38.815 551.136C40.4513 551.136 41.5934 549.824 41.5934 547.744C41.5934 545.682 40.4513 544.369 38.7979 544.369C37.5195 544.369 37.1275 545.153 36.9059 545.494H36.7866V544.455H35.815V553.455ZM36.8036 547.727C36.8036 546.261 37.4513 545.273 38.6786 545.273C39.957 545.273 40.5877 546.347 40.5877 547.727C40.5877 549.125 39.94 550.233 38.6786 550.233C37.4684 550.233 36.8036 549.21 36.8036 547.727ZM43.608 544.455H42.4489L44.5284 547.727L42.4489 551H43.608L45.1761 548.46L46.7443 551H47.9034L45.7898 547.727L47.9034 544.455H46.7443L45.1761 547.131L43.608 544.455Z" fill="#039855"/>
<rect width="96" height="20" transform="translate(16 588)" fill="#6CE9A6" fill-opacity="0.2"/>
<path d="M23.6818 594.153C21.9091 594.132 20.767 595.466 20.767 597.068C20.767 598.756 22.0114 599.966 23.5114 599.966C24.4148 599.966 25.1818 599.523 25.6591 598.807H25.7273C25.7273 600.955 24.892 602.182 23.5455 602.182C22.625 602.182 22.0625 601.602 21.875 600.801H20.8352C21.0398 602.182 22.0795 603.119 23.5455 603.119C25.5057 603.119 26.7159 601.381 26.7159 598.278C26.7159 595.074 25.1136 594.17 23.6818 594.153ZM23.6818 595.091C24.7727 595.091 25.5739 596.028 25.5739 597.051C25.5739 598.091 24.7216 599.028 23.6477 599.028C22.5739 599.028 21.7898 598.159 21.7898 597.068C21.7898 595.977 22.608 595.091 23.6818 595.091ZM31.2894 603.119C33.0536 603.141 34.2042 601.811 34.2042 600.188C34.2042 598.5 32.9556 597.29 31.4599 597.29C30.5607 597.29 29.7894 597.729 29.3121 598.449H29.244C29.2482 596.322 30.0749 595.091 31.4258 595.091C32.3462 595.091 32.9002 595.67 33.0962 596.455H34.136C33.9229 595.099 32.8917 594.153 31.4258 594.153C29.4613 594.153 28.2553 595.892 28.2553 598.977C28.2553 602.203 29.8576 603.102 31.2894 603.119ZM31.2894 602.182C30.1942 602.182 29.3931 601.249 29.3974 600.205C29.4016 599.161 30.2411 598.227 31.3235 598.227C32.3931 598.227 33.1815 599.105 33.1815 600.188C33.1815 601.295 32.359 602.182 31.2894 602.182ZM35.897 605.455H36.9027V601.994H36.9879C37.2095 602.352 37.6357 603.136 38.897 603.136C40.5334 603.136 41.6754 601.824 41.6754 599.744C41.6754 597.682 40.5334 596.369 38.88 596.369C37.6016 596.369 37.2095 597.153 36.9879 597.494H36.8686V596.455H35.897V605.455ZM36.8857 599.727C36.8857 598.261 37.5334 597.273 38.7607 597.273C40.0391 597.273 40.6697 598.347 40.6697 599.727C40.6697 601.125 40.022 602.233 38.7607 602.233C37.5504 602.233 36.8857 601.21 36.8857 599.727ZM43.69 596.455H42.5309L44.6104 599.727L42.5309 603H43.69L45.2582 600.46L46.8263 603H47.9854L45.8718 599.727L47.9854 596.455H46.8263L45.2582 599.131L43.69 596.455Z" fill="#039855"/>
<rect width="128" height="20" transform="translate(16 640)" fill="#6CE9A6" fill-opacity="0.2"/>
<path d="M23.9716 646.273H22.9148L20.733 647.722V648.795L22.8636 647.381H22.9148V655H23.9716V646.273ZM26.4815 655H31.9872V654.062H27.9304V653.994L29.8906 651.898C31.3906 650.291 31.8338 649.541 31.8338 648.574C31.8338 647.227 30.7429 646.153 29.2088 646.153C27.679 646.153 26.5156 647.193 26.5156 648.727H27.5213C27.5213 647.734 28.1648 647.074 29.1747 647.074C30.1207 647.074 30.8452 647.653 30.8452 648.574C30.8452 649.379 30.3722 649.976 29.3622 651.08L26.4815 654.233V655ZM36.5426 655.119C38.2855 655.119 39.5 654.101 39.5085 652.682C39.5 651.578 38.7628 650.641 37.821 650.466V650.415C38.6392 650.202 39.1761 649.401 39.1847 648.472C39.1761 647.142 38.0597 646.153 36.5426 646.153C35.0085 646.153 33.892 647.142 33.9006 648.472C33.892 649.401 34.429 650.202 35.2642 650.415V650.466C34.3054 650.641 33.5682 651.578 33.5767 652.682C33.5682 654.101 34.7827 655.119 36.5426 655.119ZM36.5426 654.182C35.3452 654.182 34.608 653.568 34.6165 652.631C34.608 651.646 35.4219 650.943 36.5426 650.943C37.6463 650.943 38.4602 651.646 38.4688 652.631C38.4602 653.568 37.723 654.182 36.5426 654.182ZM36.5426 650.04C35.5881 650.04 34.9148 649.443 34.9233 648.54C34.9148 647.653 35.5625 647.074 36.5426 647.074C37.5057 647.074 38.1534 647.653 38.1619 648.54C38.1534 649.443 37.4801 650.04 36.5426 650.04ZM41.1587 657.455H42.1644V653.994H42.2496C42.4712 654.352 42.8974 655.136 44.1587 655.136C45.7951 655.136 46.9371 653.824 46.9371 651.744C46.9371 649.682 45.7951 648.369 44.1417 648.369C42.8633 648.369 42.4712 649.153 42.2496 649.494H42.1303V648.455H41.1587V657.455ZM42.1474 651.727C42.1474 650.261 42.7951 649.273 44.0224 649.273C45.3008 649.273 45.9315 650.347 45.9315 651.727C45.9315 653.125 45.2837 654.233 44.0224 654.233C42.8121 654.233 42.1474 653.21 42.1474 651.727ZM48.9517 648.455H47.7926L49.8722 651.727L47.7926 655H48.9517L50.5199 652.46L52.0881 655H53.2472L51.1335 651.727L53.2472 648.455H52.0881L50.5199 651.131L48.9517 648.455Z" fill="#039855"/>
<rect width="160" height="20" transform="translate(16 692)" fill="#6CE9A6" fill-opacity="0.2"/>
<path d="M23.9716 698.273H22.9148L20.733 699.722V700.795L22.8636 699.381H22.9148V707H23.9716V698.273ZM29.3793 707.119C31.1435 707.141 32.294 705.811 32.294 704.188C32.294 702.5 31.0455 701.29 29.5497 701.29C28.6506 701.29 27.8793 701.729 27.402 702.449H27.3338C27.3381 700.322 28.1648 699.091 29.5156 699.091C30.4361 699.091 30.9901 699.67 31.1861 700.455H32.2259C32.0128 699.099 30.9815 698.153 29.5156 698.153C27.5511 698.153 26.3452 699.892 26.3452 702.977C26.3452 706.203 27.9474 707.102 29.3793 707.119ZM29.3793 706.182C28.2841 706.182 27.483 705.249 27.4872 704.205C27.4915 703.161 28.331 702.227 29.4134 702.227C30.483 702.227 31.2713 703.105 31.2713 704.188C31.2713 705.295 30.4489 706.182 29.3793 706.182ZM36.8164 707.119C38.7425 707.119 39.8505 705.487 39.8505 702.636C39.8505 699.807 38.7255 698.153 36.8164 698.153C34.9073 698.153 33.7823 699.807 33.7823 702.636C33.7823 705.487 34.8903 707.119 36.8164 707.119ZM36.8164 706.182C35.5465 706.182 34.805 704.908 34.805 702.636C34.805 700.369 35.555 699.074 36.8164 699.074C38.0778 699.074 38.8278 700.369 38.8278 702.636C38.8278 704.908 38.0863 706.182 36.8164 706.182ZM41.4869 709.455H42.4925V705.994H42.5778C42.7994 706.352 43.2255 707.136 44.4869 707.136C46.1232 707.136 47.2653 705.824 47.2653 703.744C47.2653 701.682 46.1232 700.369 44.4698 700.369C43.1914 700.369 42.7994 701.153 42.5778 701.494H42.4585V700.455H41.4869V709.455ZM42.4755 703.727C42.4755 702.261 43.1232 701.273 44.3505 701.273C45.6289 701.273 46.2596 702.347 46.2596 703.727C46.2596 705.125 45.6119 706.233 44.3505 706.233C43.1403 706.233 42.4755 705.21 42.4755 703.727ZM49.2798 700.455H48.1207L50.2003 703.727L48.1207 707H49.2798L50.848 704.46L52.4162 707H53.5753L51.4616 703.727L53.5753 700.455H52.4162L50.848 703.131L49.2798 700.455Z" fill="#039855"/>
<rect width="192" height="20" transform="translate(16 744)" fill="#6CE9A6" fill-opacity="0.2"/>
<path d="M23.9716 750.273H22.9148L20.733 751.722V752.795L22.8636 751.381H22.9148V759H23.9716V750.273ZM29.2599 750.153C27.4872 750.132 26.3452 751.466 26.3452 753.068C26.3452 754.756 27.5895 755.966 29.0895 755.966C29.9929 755.966 30.7599 755.523 31.2372 754.807H31.3054C31.3054 756.955 30.4702 758.182 29.1236 758.182C28.2031 758.182 27.6406 757.602 27.4531 756.801H26.4134C26.6179 758.182 27.6577 759.119 29.1236 759.119C31.0838 759.119 32.294 757.381 32.294 754.278C32.294 751.074 30.6918 750.17 29.2599 750.153ZM29.2599 751.091C30.3509 751.091 31.152 752.028 31.152 753.051C31.152 754.091 30.2997 755.028 29.2259 755.028C28.152 755.028 27.3679 754.159 27.3679 753.068C27.3679 751.977 28.1861 751.091 29.2599 751.091ZM33.9698 759H39.4755V758.062H35.4187V757.994L37.3789 755.898C38.8789 754.291 39.3221 753.541 39.3221 752.574C39.3221 751.227 38.2312 750.153 36.6971 750.153C35.1673 750.153 34.0039 751.193 34.0039 752.727H35.0096C35.0096 751.734 35.6531 751.074 36.663 751.074C37.609 751.074 38.3335 751.653 38.3335 752.574C38.3335 753.379 37.8604 753.976 36.8505 755.08L33.9698 758.233V759ZM41.2525 761.455H42.2582V757.994H42.3434C42.565 758.352 42.9911 759.136 44.2525 759.136C45.8888 759.136 47.0309 757.824 47.0309 755.744C47.0309 753.682 45.8888 752.369 44.2354 752.369C42.957 752.369 42.565 753.153 42.3434 753.494H42.2241V752.455H41.2525V761.455ZM42.2411 755.727C42.2411 754.261 42.8888 753.273 44.1161 753.273C45.3945 753.273 46.0252 754.347 46.0252 755.727C46.0252 757.125 45.3775 758.233 44.1161 758.233C42.9059 758.233 42.2411 757.21 42.2411 755.727ZM49.0455 752.455H47.8864L49.9659 755.727L47.8864 759H49.0455L50.6136 756.46L52.1818 759H53.3409L51.2273 755.727L53.3409 752.455H52.1818L50.6136 755.131L49.0455 752.455Z" fill="#039855"/>
<rect width="224" height="20" transform="translate(16 796)" fill="#6CE9A6" fill-opacity="0.2"/>
<path d="M20.9034 811H26.4091V810.062H22.3523V809.994L24.3125 807.898C25.8125 806.291 26.2557 805.541 26.2557 804.574C26.2557 803.227 25.1648 802.153 23.6307 802.153C22.1009 802.153 20.9375 803.193 20.9375 804.727H21.9432C21.9432 803.734 22.5866 803.074 23.5966 803.074C24.5426 803.074 25.267 803.653 25.267 804.574C25.267 805.379 24.794 805.976 23.7841 807.08L20.9034 810.233V811ZM28.169 811H33.6747V810.062H29.6179V809.994L31.5781 807.898C33.0781 806.291 33.5213 805.541 33.5213 804.574C33.5213 803.227 32.4304 802.153 30.8963 802.153C29.3665 802.153 28.2031 803.193 28.2031 804.727H29.2088C29.2088 803.734 29.8523 803.074 30.8622 803.074C31.8082 803.074 32.5327 803.653 32.5327 804.574C32.5327 805.379 32.0597 805.976 31.0497 807.08L28.169 810.233V811ZM35.0426 809.21H39.1506V811H40.1562V809.21H41.3494V808.273H40.1562V802.273H38.8778L35.0426 808.341V809.21ZM39.1506 808.273H36.1847V808.205L39.0824 803.619H39.1506V808.273ZM42.9634 813.455H43.9691V809.994H44.0543C44.2759 810.352 44.7021 811.136 45.9634 811.136C47.5998 811.136 48.7418 809.824 48.7418 807.744C48.7418 805.682 47.5998 804.369 45.9464 804.369C44.668 804.369 44.2759 805.153 44.0543 805.494H43.935V804.455H42.9634V813.455ZM43.9521 807.727C43.9521 806.261 44.5998 805.273 45.8271 805.273C47.1055 805.273 47.7362 806.347 47.7362 807.727C47.7362 809.125 47.0884 810.233 45.8271 810.233C44.6168 810.233 43.9521 809.21 43.9521 807.727ZM50.7564 804.455H49.5973L51.6768 807.727L49.5973 811H50.7564L52.3246 808.46L53.8928 811H55.0518L52.9382 807.727L55.0518 804.455H53.8928L52.3246 807.131L50.7564 804.455Z" fill="#039855"/>
<rect width="256" height="20" transform="translate(16 848)" fill="#6CE9A6" fill-opacity="0.2"/>
<path d="M20.9034 863H26.4091V862.062H22.3523V861.994L24.3125 859.898C25.8125 858.291 26.2557 857.541 26.2557 856.574C26.2557 855.227 25.1648 854.153 23.6307 854.153C22.1009 854.153 20.9375 855.193 20.9375 856.727H21.9432C21.9432 855.734 22.5866 855.074 23.5966 855.074C24.5426 855.074 25.267 855.653 25.267 856.574C25.267 857.379 24.794 857.976 23.7841 859.08L20.9034 862.233V863ZM30.8963 863.119C32.5582 863.119 33.777 861.892 33.777 860.222C33.777 858.53 32.6009 857.29 30.9986 857.29C30.4105 857.29 29.8395 857.499 29.4815 857.784H29.4304L29.7372 855.21H33.3849V854.273H28.8509L28.3224 858.568L29.3111 858.688C29.6733 858.428 30.2912 858.24 30.8281 858.244C31.9403 858.253 32.7543 859.097 32.7543 860.239C32.7543 861.359 31.9702 862.182 30.8963 862.182C30.0014 862.182 29.2898 861.607 29.2088 860.818H28.1861C28.25 862.148 29.3963 863.119 30.8963 863.119ZM38.3675 863.119C40.1317 863.141 41.2823 861.811 41.2823 860.188C41.2823 858.5 40.0337 857.29 38.538 857.29C37.6388 857.29 36.8675 857.729 36.3903 858.449H36.3221C36.3263 856.322 37.1531 855.091 38.5039 855.091C39.4244 855.091 39.9783 855.67 40.1744 856.455H41.2141C41.0011 855.099 39.9698 854.153 38.5039 854.153C36.5394 854.153 35.3335 855.892 35.3335 858.977C35.3335 862.203 36.9357 863.102 38.3675 863.119ZM38.3675 862.182C37.2724 862.182 36.4712 861.249 36.4755 860.205C36.4798 859.161 37.3192 858.227 38.4016 858.227C39.4712 858.227 40.2596 859.105 40.2596 860.188C40.2596 861.295 39.4371 862.182 38.3675 862.182ZM42.9751 865.455H43.9808V861.994H44.0661C44.2876 862.352 44.7138 863.136 45.9751 863.136C47.6115 863.136 48.7536 861.824 48.7536 859.744C48.7536 857.682 47.6115 856.369 45.9581 856.369C44.6797 856.369 44.2876 857.153 44.0661 857.494H43.9467V856.455H42.9751V865.455ZM43.9638 859.727C43.9638 858.261 44.6115 857.273 45.8388 857.273C47.1172 857.273 47.7479 858.347 47.7479 859.727C47.7479 861.125 47.1001 862.233 45.8388 862.233C44.6286 862.233 43.9638 861.21 43.9638 859.727ZM50.7681 856.455H49.609L51.6886 859.727L49.609 863H50.7681L52.3363 860.46L53.9045 863H55.0636L52.9499 859.727L55.0636 856.455H53.9045L52.3363 859.131L50.7681 856.455Z" fill="#039855"/>
<rect width="288" height="20" transform="translate(16 900)" fill="#6CE9A6" fill-opacity="0.2"/>
<path d="M20.9034 915H26.4091V914.062H22.3523V913.994L24.3125 911.898C25.8125 910.291 26.2557 909.541 26.2557 908.574C26.2557 907.227 25.1648 906.153 23.6307 906.153C22.1009 906.153 20.9375 907.193 20.9375 908.727H21.9432C21.9432 907.734 22.5866 907.074 23.5966 907.074C24.5426 907.074 25.267 907.653 25.267 908.574C25.267 909.379 24.794 909.976 23.7841 911.08L20.9034 914.233V915ZM30.9645 915.119C32.7074 915.119 33.9219 914.101 33.9304 912.682C33.9219 911.578 33.1847 910.641 32.2429 910.466V910.415C33.0611 910.202 33.598 909.401 33.6065 908.472C33.598 907.142 32.4815 906.153 30.9645 906.153C29.4304 906.153 28.3139 907.142 28.3224 908.472C28.3139 909.401 28.8509 910.202 29.6861 910.415V910.466C28.7273 910.641 27.9901 911.578 27.9986 912.682C27.9901 914.101 29.2045 915.119 30.9645 915.119ZM30.9645 914.182C29.767 914.182 29.0298 913.568 29.0384 912.631C29.0298 911.646 29.8438 910.943 30.9645 910.943C32.0682 910.943 32.8821 911.646 32.8906 912.631C32.8821 913.568 32.1449 914.182 30.9645 914.182ZM30.9645 910.04C30.0099 910.04 29.3366 909.443 29.3452 908.54C29.3366 907.653 29.9844 907.074 30.9645 907.074C31.9276 907.074 32.5753 907.653 32.5838 908.54C32.5753 909.443 31.902 910.04 30.9645 910.04ZM38.359 915.119C40.1019 915.119 41.3164 914.101 41.3249 912.682C41.3164 911.578 40.5792 910.641 39.6374 910.466V910.415C40.4556 910.202 40.9925 909.401 41.0011 908.472C40.9925 907.142 39.8761 906.153 38.359 906.153C36.8249 906.153 35.7085 907.142 35.717 908.472C35.7085 909.401 36.2454 910.202 37.0806 910.415V910.466C36.1218 910.641 35.3846 911.578 35.3931 912.682C35.3846 914.101 36.5991 915.119 38.359 915.119ZM38.359 914.182C37.1616 914.182 36.4244 913.568 36.4329 912.631C36.4244 911.646 37.2383 910.943 38.359 910.943C39.4627 910.943 40.2766 911.646 40.2852 912.631C40.2766 913.568 39.5394 914.182 38.359 914.182ZM38.359 910.04C37.4045 910.04 36.7312 909.443 36.7397 908.54C36.7312 907.653 37.3789 907.074 38.359 907.074C39.3221 907.074 39.9698 907.653 39.9783 908.54C39.9698 909.443 39.2965 910.04 38.359 910.04ZM42.9751 917.455H43.9808V913.994H44.0661C44.2876 914.352 44.7138 915.136 45.9751 915.136C47.6115 915.136 48.7536 913.824 48.7536 911.744C48.7536 909.682 47.6115 908.369 45.9581 908.369C44.6797 908.369 44.2876 909.153 44.0661 909.494H43.9467V908.455H42.9751V917.455ZM43.9638 911.727C43.9638 910.261 44.6115 909.273 45.8388 909.273C47.1172 909.273 47.7479 910.347 47.7479 911.727C47.7479 913.125 47.1001 914.233 45.8388 914.233C44.6286 914.233 43.9638 913.21 43.9638 911.727ZM50.7681 908.455H49.609L51.6886 911.727L49.609 915H50.7681L52.3363 912.46L53.9045 915H55.0636L52.9499 911.727L55.0636 908.455H53.9045L52.3363 911.131L50.7681 908.455Z" fill="#039855"/>
<rect width="320" height="20" transform="translate(16 952)" fill="#6CE9A6" fill-opacity="0.2"/>
<path d="M23.8523 967.119C25.544 967.119 26.8011 966.058 26.8011 964.631C26.8011 963.523 26.1449 962.717 25.0455 962.534V962.466C25.9276 962.197 26.4773 961.473 26.4773 960.489C26.4773 959.253 25.5014 958.153 23.8864 958.153C22.3778 958.153 21.125 959.082 21.0739 960.455H22.0966C22.1349 959.585 22.9616 959.074 23.8693 959.074C24.8324 959.074 25.4545 959.658 25.4545 960.54C25.4545 961.46 24.7344 962.057 23.6989 962.057H23V962.994H23.6989C25.0241 962.994 25.7614 963.668 25.7614 964.631C25.7614 965.555 24.956 966.182 23.8352 966.182C22.8253 966.182 22.0241 965.662 21.9602 964.818H20.8864C20.9503 966.19 22.1605 967.119 23.8523 967.119ZM28.544 967H34.0497V966.062H29.9929V965.994L31.9531 963.898C33.4531 962.291 33.8963 961.541 33.8963 960.574C33.8963 959.227 32.8054 958.153 31.2713 958.153C29.7415 958.153 28.5781 959.193 28.5781 960.727H29.5838C29.5838 959.734 30.2273 959.074 31.2372 959.074C32.1832 959.074 32.9077 959.653 32.9077 960.574C32.9077 961.379 32.4347 961.976 31.4247 963.08L28.544 966.233V967ZM38.6562 967.119C40.5824 967.119 41.6903 965.487 41.6903 962.636C41.6903 959.807 40.5653 958.153 38.6562 958.153C36.7472 958.153 35.6222 959.807 35.6222 962.636C35.6222 965.487 36.7301 967.119 38.6562 967.119ZM38.6562 966.182C37.3864 966.182 36.6449 964.908 36.6449 962.636C36.6449 960.369 37.3949 959.074 38.6562 959.074C39.9176 959.074 40.6676 960.369 40.6676 962.636C40.6676 964.908 39.9261 966.182 38.6562 966.182ZM43.3267 969.455H44.3324V965.994H44.4176C44.6392 966.352 45.0653 967.136 46.3267 967.136C47.9631 967.136 49.1051 965.824 49.1051 963.744C49.1051 961.682 47.9631 960.369 46.3097 960.369C45.0312 960.369 44.6392 961.153 44.4176 961.494H44.2983V960.455H43.3267V969.455ZM44.3153 963.727C44.3153 962.261 44.9631 961.273 46.1903 961.273C47.4688 961.273 48.0994 962.347 48.0994 963.727C48.0994 965.125 47.4517 966.233 46.1903 966.233C44.9801 966.233 44.3153 965.21 44.3153 963.727ZM51.1197 960.455H49.9606L52.0401 963.727L49.9606 967H51.1197L52.6879 964.46L54.256 967H55.4151L53.3015 963.727L55.4151 960.455H54.256L52.6879 963.131L51.1197 960.455Z" fill="#039855"/>
<rect width="384" height="20" transform="translate(16 1004)" fill="#6CE9A6" fill-opacity="0.2"/>
<path d="M23.8523 1019.12C25.544 1019.12 26.8011 1018.06 26.8011 1016.63C26.8011 1015.52 26.1449 1014.72 25.0455 1014.53V1014.47C25.9276 1014.2 26.4773 1013.47 26.4773 1012.49C26.4773 1011.25 25.5014 1010.15 23.8864 1010.15C22.3778 1010.15 21.125 1011.08 21.0739 1012.45H22.0966C22.1349 1011.59 22.9616 1011.07 23.8693 1011.07C24.8324 1011.07 25.4545 1011.66 25.4545 1012.54C25.4545 1013.46 24.7344 1014.06 23.6989 1014.06H23V1014.99H23.6989C25.0241 1014.99 25.7614 1015.67 25.7614 1016.63C25.7614 1017.56 24.956 1018.18 23.8352 1018.18C22.8253 1018.18 22.0241 1017.66 21.9602 1016.82H20.8864C20.9503 1018.19 22.1605 1019.12 23.8523 1019.12ZM31.3395 1019.12C33.0824 1019.12 34.2969 1018.1 34.3054 1016.68C34.2969 1015.58 33.5597 1014.64 32.6179 1014.47V1014.41C33.4361 1014.2 33.973 1013.4 33.9815 1012.47C33.973 1011.14 32.8565 1010.15 31.3395 1010.15C29.8054 1010.15 28.6889 1011.14 28.6974 1012.47C28.6889 1013.4 29.2259 1014.2 30.0611 1014.41V1014.47C29.1023 1014.64 28.3651 1015.58 28.3736 1016.68C28.3651 1018.1 29.5795 1019.12 31.3395 1019.12ZM31.3395 1018.18C30.142 1018.18 29.4048 1017.57 29.4134 1016.63C29.4048 1015.65 30.2188 1014.94 31.3395 1014.94C32.4432 1014.94 33.2571 1015.65 33.2656 1016.63C33.2571 1017.57 32.5199 1018.18 31.3395 1018.18ZM31.3395 1014.04C30.3849 1014.04 29.7116 1013.44 29.7202 1012.54C29.7116 1011.65 30.3594 1011.07 31.3395 1011.07C32.3026 1011.07 32.9503 1011.65 32.9588 1012.54C32.9503 1013.44 32.277 1014.04 31.3395 1014.04ZM35.734 1017.21H39.842V1019H40.8477V1017.21H42.0408V1016.27H40.8477V1010.27H39.5692L35.734 1016.34V1017.21ZM39.842 1016.27H36.8761V1016.2L39.7738 1011.62H39.842V1016.27ZM43.6548 1021.45H44.6605V1017.99H44.7457C44.9673 1018.35 45.3935 1019.14 46.6548 1019.14C48.2912 1019.14 49.4332 1017.82 49.4332 1015.74C49.4332 1013.68 48.2912 1012.37 46.6378 1012.37C45.3594 1012.37 44.9673 1013.15 44.7457 1013.49H44.6264V1012.45H43.6548V1021.45ZM44.6435 1015.73C44.6435 1014.26 45.2912 1013.27 46.5185 1013.27C47.7969 1013.27 48.4276 1014.35 48.4276 1015.73C48.4276 1017.12 47.7798 1018.23 46.5185 1018.23C45.3082 1018.23 44.6435 1017.21 44.6435 1015.73ZM51.4478 1012.45H50.2887L52.3683 1015.73L50.2887 1019H51.4478L53.016 1016.46L54.5842 1019H55.7433L53.6296 1015.73L55.7433 1012.45H54.5842L53.016 1015.13L51.4478 1012.45Z" fill="#039855"/>
</svg>
