<svg width="440" height="94" viewBox="0 0 440 94" fill="none" xmlns="http://www.w3.org/2000/svg">
<path d="M1.41478 94L2.29262 91.5284H5.82103L6.69887 94H7.80682L4.60228 85.2727H3.51137L0.306824 94H1.41478ZM2.62501 90.5909L4.02273 86.6534H4.09091L5.48864 90.5909H2.62501Z" fill="#12B76A"/>
<path d="M14.6506 93.9999L15.6747 91.1164H19.7912L20.8154 93.9999H22.108L18.3693 83.8181H17.0966L13.358 93.9999H14.6506ZM16.0625 90.0227L17.6932 85.4289H17.7727L19.4034 90.0227H16.0625Z" fill="#12B76A"/>
<path d="M28.8864 93.9999L30.0568 90.7044H34.7614L35.9318 93.9999H37.4091L33.1364 82.3635H31.6818L27.4091 93.9999H28.8864ZM30.5 89.4544L32.3637 84.2044H32.4546L34.3182 89.4544H30.5Z" fill="#12B76A"/>
<path d="M44.1221 94.0001L45.4389 90.2927H50.7315L52.0483 94.0001H53.7102L48.9034 80.9092H47.267L42.4602 94.0001H44.1221ZM45.9375 88.8865L48.0341 82.9802H48.1363L50.2329 88.8865H45.9375Z" fill="#12B76A"/>
<path d="M61.3579 94L62.821 89.8807H68.7017L70.1648 94H72.0114L66.6704 79.4546H64.8523L59.5114 94H61.3579ZM63.375 88.3182L65.7045 81.7557H65.8182L68.1477 88.3182H63.375Z" fill="#12B76A"/>
<path d="M79.8296 94L81.5852 89.0568H88.6421L90.3977 94H92.6136L86.2046 76.5454H84.0227L77.6136 94H79.8296ZM82.25 87.1818L85.0455 79.3068H85.1818L87.9773 87.1818H82.25Z" fill="#12B76A"/>
<path d="M101.537 94.0001L103.732 87.8211H112.553L114.747 94.0001H117.517L109.506 72.1819H106.778L98.767 94.0001H101.537ZM104.562 85.4773L108.057 75.6336H108.227L111.722 85.4773H104.562Z" fill="#12B76A"/>
<path d="M127.244 93.9999L129.878 86.5852H140.463L143.097 93.9999H146.42L136.807 67.8181H133.534L123.92 93.9999H127.244ZM130.875 83.7727L135.068 71.9602H135.273L139.466 83.7727H130.875Z" fill="#12B76A"/>
<path d="M157.659 93.9999L161.17 84.1135H175.284L178.795 93.9999H183.227L170.409 59.0908H166.045L153.227 93.9999H157.659ZM162.5 80.3635L168.091 64.6135H168.364L173.955 80.3635H162.5Z" fill="#12B76A"/>
<path d="M196.074 93.9999L200.463 81.6419H218.105L222.494 93.9999H228.034L212.011 50.3635H206.557L190.534 93.9999H196.074ZM202.125 76.9544L209.114 57.2669H209.455L216.443 76.9544H202.125Z" fill="#12B76A"/>
<path d="M242.489 94.0001L247.756 79.1706H268.926L274.193 94.0001H280.841L261.614 41.6365H255.068L235.841 94.0001H242.489ZM249.75 73.5456L258.136 49.9206H258.545L266.932 73.5456H249.75Z" fill="#12B76A"/>
<path d="M298.318 94.0001L305.341 74.2273H333.568L340.591 94.0001H349.455L323.818 24.1819H315.091L289.455 94.0001H298.318ZM308 66.7273L319.182 35.2273H319.727L330.909 66.7273H308Z" fill="#12B76A"/>
<path d="M371.091 94.0001L380.455 67.6365H418.091L427.455 94.0001H439.273L405.091 0.90918H393.455L359.273 94.0001H371.091ZM384 57.6365L398.909 15.6365H399.636L414.545 57.6365H384Z" fill="#12B76A"/>
</svg>
